<?xml version="1.0" encoding="UTF-8" standalone="no"?>
<!DOCTYPE svg PUBLIC "-//W3C//DTD SVG 1.1//EN" "http://www.w3.org/Graphics/SVG/1.1/DTD/svg11.dtd">
<svg width="100%" height="100%" viewBox="0 0 55 53" version="1.1" xmlns="http://www.w3.org/2000/svg" xmlns:xlink="http://www.w3.org/1999/xlink" xml:space="preserve" xmlns:serif="http://www.serif.com/" style="fill-rule:evenodd;clip-rule:evenodd;stroke-linejoin:round;stroke-miterlimit:2;">
    <g transform="matrix(1,0,0,1,-2.84427,-3.90524)">
        <g id="Duplicate" transform="matrix(2.18166,1.88246e-31,-2.68922e-32,2.18166,-683.878,-209.897)">
            <path d="M333.072,103.477C333.658,103.477 334.133,104.105 334.133,104.88L334.133,120.596C334.133,121.371 333.658,122 333.072,122L315.831,122C315.246,122 314.771,121.371 314.771,120.596L314.771,104.88C314.771,104.105 315.246,103.477 315.831,103.477L333.072,103.477ZM321.215,99.471C321.215,98.659 321.868,98 322.671,98L338.314,98C339.119,98 339.771,98.659 339.771,99.471L339.771,115.934C339.771,116.748 339.119,117.404 338.314,117.404L336.552,117.404L336.552,102.49C336.552,101.678 335.9,101.021 335.095,101.021L321.215,101.021L321.215,99.471Z" style="fill:rgb(13,174,255);"/>
        </g>
        <g transform="matrix(0.934805,0,0,0.934805,-117.098,-37.7654)">
            <text x="129.194px" y="90.684px" style="font-family:'ArialRoundedMTBold', 'Arial Rounded MT Bold', sans-serif;font-size:36px;fill:rgb(0,66,117);">&lt;F</text>
        </g>
    </g>
</svg>
