<?xml version="1.0" encoding="UTF-8" standalone="no"?>
<!DOCTYPE svg PUBLIC "-//W3C//DTD SVG 1.1//EN" "http://www.w3.org/Graphics/SVG/1.1/DTD/svg11.dtd">
<svg width="100%" height="100%" viewBox="0 0 3047 876" version="1.1" xmlns="http://www.w3.org/2000/svg" xmlns:xlink="http://www.w3.org/1999/xlink" xml:space="preserve" xmlns:serif="http://www.serif.com/" style="fill-rule:evenodd;clip-rule:evenodd;stroke-linejoin:round;stroke-miterlimit:2;">
    <path d="M387,0L774,218.9L774,656.8L387,875.7L0,656.8L0,218.9L387,0Z" style="fill:white;fill-rule:nonzero;"/>
    <path d="M704.9,641.7L399.8,814.3L399.8,679.9L589.9,575.3L704.9,641.7ZM725.8,622.8L725.8,261.9L614.2,326.4L614.2,558.4L725.8,622.8ZM67.9,641.7L373,814.3L373,679.9L182.8,575.3L67.9,641.7ZM47,622.8L47,261.9L158.6,326.4L158.6,558.4L47,622.8ZM60.1,238.5L373,61.5L373,191.4L172.5,301.7L170.9,302.6L60.1,238.5ZM712.7,238.5L399.8,61.5L399.8,191.4L600.3,301.6L601.9,302.5L712.7,238.5Z" style="fill:rgb(142,214,251);fill-rule:nonzero;"/>
    <path d="M373,649.3L185.4,546.1L185.4,341.8L373,450.1L373,649.3ZM399.8,649.3L587.4,546.2L587.4,341.8L399.8,450.1L399.8,649.3ZM198.1,318.2L386.4,214.7L574.7,318.2L386.4,426.9L198.1,318.2Z" style="fill:rgb(28,120,192);fill-rule:nonzero;"/>
    <path d="M1164.3,576.3L1246.8,576.3L1330.9,296.1L1250.5,296.1L1200.7,494.9L1147.6,296.1L1078,296.1L1024.4,494.9L975.1,296.1L894.7,296.1L978.3,576.3L1060.8,576.3L1112.8,396.8L1164.3,576.3ZM1335.2,437C1335.2,521.1 1392.5,583.3 1482.6,583.3C1552.3,583.3 1589.8,541.5 1600.5,521.7L1551.7,484.7C1543.7,496.5 1521.7,519 1483.6,519C1442.3,519 1412.3,492.2 1410.7,454.7L1608,454.7C1608.5,449.3 1608.5,444 1608.5,438.6C1608.5,347 1559.2,289.1 1472.4,289.1C1392.5,289.1 1335.2,352.3 1335.2,437ZM1412.9,406.4C1416.1,374.3 1438.6,349.6 1473.5,349.6C1507.3,349.6 1531.9,372.1 1533.5,406.4L1412.9,406.4ZM1636.4,576.3L1706.1,576.3L1706.1,547.4C1713.6,556.5 1741.5,583.3 1789.2,583.3C1869.6,583.3 1926.4,522.8 1926.4,436.5C1926.4,349.7 1873.9,289.2 1793.5,289.2C1745.3,289.2 1717.4,316 1710.4,325.6L1710.4,188.9L1636.5,188.9L1636.5,576.3L1636.4,576.3ZM1708.2,437C1708.2,384.5 1739.3,354.5 1780,354.5C1822.9,354.5 1851.8,388.3 1851.8,437C1851.8,486.8 1821.8,517.9 1780,517.9C1735,517.9 1708.2,481.4 1708.2,437ZM1955.1,676.5L2029.1,676.5L2029.1,547.3C2036.1,556.4 2063.9,583.2 2112.2,583.2C2192.6,583.2 2245.1,522.7 2245.1,435.9C2245.1,350.2 2188.3,289.1 2107.9,289.1C2060.2,289.1 2032.3,315.9 2024.8,325.5L2024.8,296L1955.1,296L1955.1,676.5ZM2027,435.4C2027,390.9 2053.8,354.5 2098.8,354.5C2140.6,354.5 2170.6,385.6 2170.6,435.4C2170.6,484.2 2141.7,517.9 2098.8,517.9C2058.1,517.9 2027,487.9 2027,435.4ZM2258.5,489.5C2258.5,548.4 2306.7,583.3 2363.5,583.3C2395.7,583.3 2417.1,573.7 2431.6,558.1L2436.4,576.3L2501.8,576.3L2501.8,398.9C2501.8,336.2 2475,289.1 2385,289.1C2342.1,289.1 2299.8,305.2 2274.6,322.3L2302.5,372.7C2325.42,360.318 2350.95,353.533 2377,352.9C2409.7,352.9 2427.9,369.5 2427.9,394.2L2427.9,412.4C2417.7,405.4 2395.7,396.9 2367.3,396.9C2301.9,396.8 2258.5,434.3 2258.5,489.5ZM2332.4,487.3C2332.4,464.3 2352.2,448.2 2380.6,448.2C2409,448.2 2429.4,462.7 2429.4,487.3C2429.4,510.9 2409,525.9 2381.2,525.9C2353.4,525.9 2332.4,510.4 2332.4,487.3ZM2681.3,517.9C2634.7,517.9 2601.5,484.1 2601.5,436.5C2601.5,391.5 2631,354.5 2678.7,354.5C2703.12,354.71 2726.55,364.311 2744.1,381.3L2765,319.1C2739.74,299.469 2708.59,288.899 2676.6,289.1C2591.4,289.1 2527.6,351.8 2527.6,437C2527.6,522.2 2589.8,583.3 2677.1,583.3C2708.74,583.379 2739.49,572.808 2764.4,553.3L2744.6,492.8C2732.2,502.9 2709.7,517.9 2681.3,517.9ZM2792.2,576.3L2866.1,576.3L2866.1,431.6L2959.9,576.3L3046.7,576.3L2940.6,423L3039.2,296L2956.1,296L2866.1,413.9L2866.1,188.9L2792.2,188.9L2792.2,576.3Z" style="fill:rgb(128,128,128);fill-rule:nonzero;"/>
</svg>
